<svg width="84" height="21" viewBox="0 0 84 21" fill="none" xmlns="http://www.w3.org/2000/svg">
<path d="M4.58329 20.2583C2.9644 20.2583 1.51774 19.9139 0.243293 19.225L0.527459 16.745C1.0269 17.1067 1.61246 17.4167 2.28413 17.675C2.95579 17.9161 3.68774 18.0367 4.47996 18.0367C5.22051 18.0367 5.78885 17.9161 6.18496 17.675C6.58107 17.4339 6.77913 17.0722 6.77913 16.59C6.77913 16.0561 6.56385 15.6514 6.13329 15.3758C5.71996 15.0831 5.10857 14.8075 4.29913 14.5492C3.47246 14.2736 2.79218 14.0067 2.25829 13.7483C1.7244 13.4728 1.28524 13.0939 0.940793 12.6117C0.596348 12.1294 0.424126 11.5094 0.424126 10.7517C0.424126 9.66667 0.828848 8.77111 1.63829 8.065C2.46496 7.34167 3.65329 6.98 5.20329 6.98C6.54663 6.98 7.7694 7.28139 8.87163 7.88417L8.58746 10.2608C8.05357 9.86472 7.51968 9.56333 6.98579 9.35667C6.46913 9.13278 5.89218 9.02083 5.25496 9.02083C4.58329 9.02083 4.05801 9.15 3.67913 9.40833C3.30024 9.66667 3.11079 10.0456 3.11079 10.545C3.11079 10.9067 3.20551 11.1994 3.39496 11.4233C3.5844 11.6472 3.85996 11.8367 4.22163 11.9917C4.58329 12.1467 5.15163 12.3619 5.92663 12.6375C7.02885 13.0164 7.89857 13.4814 8.53579 14.0325C9.19024 14.5836 9.51746 15.3931 9.51746 16.4608C9.51746 17.5631 9.11274 18.4758 8.30329 19.1992C7.51107 19.9053 6.27107 20.2583 4.58329 20.2583ZM17.8867 20.2583C16.4228 20.2583 15.1655 19.9569 14.115 19.3542C13.0817 18.7514 12.298 17.9419 11.7642 16.9258C11.2475 15.9097 10.9892 14.7731 10.9892 13.5158C10.9892 12.3275 11.2303 11.2425 11.7125 10.2608C12.2119 9.26195 12.9267 8.46972 13.8567 7.88417C14.8039 7.29861 15.9233 7.00583 17.215 7.00583C18.9028 7.00583 20.2461 7.50528 21.245 8.50417C22.2439 9.48583 22.7433 10.8033 22.7433 12.4567C22.7433 12.9044 22.6916 13.3867 22.5883 13.9033H13.7533C13.9255 15.3328 14.3991 16.3661 15.1741 17.0033C15.9664 17.6406 16.9653 17.9592 18.1708 17.9592C19.5314 17.9592 20.78 17.6664 21.9166 17.0808L22.175 19.2767C20.7972 19.9311 19.3678 20.2583 17.8867 20.2583ZM19.9791 12.0692C19.9791 11.2597 19.7466 10.5967 19.2816 10.08C18.8166 9.56333 18.1191 9.305 17.1891 9.305C15.4497 9.305 14.3561 10.2264 13.9083 12.0692H19.9791ZM28.2896 20.2583C27.1702 20.2583 26.3349 19.9569 25.7838 19.3542C25.2499 18.7514 24.9829 17.985 24.9829 17.055V0.625001H27.6954V15.7375C27.6954 16.4608 27.7385 16.9861 27.8246 17.3133C27.9107 17.6233 28.0743 17.83 28.3154 17.9333C28.5566 18.0194 28.9613 18.0625 29.5296 18.0625L29.1938 20.2583H28.2896ZM32.1676 9.3825H30.1268L30.4368 7.23833H32.1676V4.345C32.1676 3.19111 32.4862 2.28695 33.1235 1.6325C33.7779 0.960834 34.6993 0.625001 35.8876 0.625001C36.5937 0.625001 37.274 0.719723 37.9285 0.909168L37.6185 3.13083C37.1879 3.01028 36.7918 2.95 36.4301 2.95C35.3796 2.95 34.8543 3.52695 34.8543 4.68083V7.23833H38.0318V9.3825H34.8543V20H32.1676V9.3825ZM45.6823 20.2583C44.2701 20.2583 43.0645 19.9742 42.0656 19.4058C41.0667 18.8203 40.309 18.0281 39.7923 17.0292C39.2929 16.0303 39.0431 14.9108 39.0431 13.6708C39.0431 12.3964 39.2929 11.2597 39.7923 10.2608C40.2917 9.24472 41.0495 8.44389 42.0656 7.85833C43.0817 7.27278 44.3304 6.98 45.8115 6.98C47.1376 6.98 48.2915 7.23833 49.2731 7.755L48.9631 10.0283C47.9987 9.54611 46.9826 9.305 45.9148 9.305C44.6059 9.305 43.5898 9.6925 42.8665 10.4675C42.1604 11.2253 41.8073 12.2758 41.8073 13.6192C41.8073 14.9281 42.1604 15.9786 42.8665 16.7708C43.5898 17.5631 44.5973 17.9592 45.889 17.9592C46.974 17.9592 48.0073 17.6922 48.989 17.1583L49.299 19.38C48.8856 19.6383 48.3517 19.845 47.6973 20C47.0429 20.1722 46.3712 20.2583 45.6823 20.2583ZM54.3908 20.2583C53.2713 20.2583 52.3499 19.9139 51.6266 19.225C50.9205 18.5361 50.5674 17.6319 50.5674 16.5125C50.5674 15.3931 50.9549 14.4975 51.7299 13.8258C52.5221 13.1542 53.478 12.6806 54.5974 12.405C55.7169 12.1122 56.8535 11.9572 58.0074 11.94C57.9902 10.9583 57.7749 10.2867 57.3616 9.925C56.9655 9.54611 56.3196 9.35667 55.4241 9.35667C54.873 9.35667 54.3219 9.44278 53.7708 9.615C53.2369 9.77 52.6427 10.0456 51.9883 10.4417L51.6783 8.24583C52.3155 7.84972 53.013 7.54833 53.7708 7.34167C54.5458 7.11778 55.338 7.00583 56.1474 7.00583C57.7319 7.00583 58.8858 7.43639 59.6091 8.2975C60.3324 9.15861 60.6941 10.6225 60.6941 12.6892V15.66C60.6941 16.3317 60.7199 16.8311 60.7716 17.1583C60.8405 17.4856 60.961 17.7181 61.1333 17.8558C61.3227 17.9936 61.6155 18.0625 62.0116 18.0625H62.3216L62.0116 20.2583H61.4174C60.5219 20.2583 59.8416 20.1206 59.3766 19.845C58.9288 19.5694 58.5671 19.1389 58.2916 18.5533C57.8266 19.0872 57.2583 19.5092 56.5866 19.8192C55.9149 20.1119 55.183 20.2583 54.3908 20.2583ZM55.2174 18.14C55.7169 18.14 56.2163 18.0194 56.7158 17.7783C57.2324 17.5372 57.663 17.2014 58.0074 16.7708V13.7742C54.9074 13.8775 53.3574 14.7472 53.3574 16.3833C53.3574 17.5544 53.9774 18.14 55.2174 18.14ZM64.1372 7.23833H66.5139L66.6947 9.02083C67.8314 7.66028 69.0197 6.98 70.2597 6.98C70.4491 6.98 70.6472 6.99722 70.8539 7.03167L70.6214 9.8475C70.3458 9.77861 70.0358 9.74417 69.6914 9.74417C69.1058 9.74417 68.5547 9.88195 68.038 10.1575C67.5214 10.4331 67.1511 10.7517 66.9272 11.1133V20H64.1372V7.23833ZM78.3074 20.2583C76.8435 20.2583 75.5863 19.9569 74.5357 19.3542C73.5024 18.7514 72.7188 17.9419 72.1849 16.9258C71.6682 15.9097 71.4099 14.7731 71.4099 13.5158C71.4099 12.3275 71.651 11.2425 72.1332 10.2608C72.6327 9.26195 73.3474 8.46972 74.2774 7.88417C75.2246 7.29861 76.344 7.00583 77.6357 7.00583C79.3235 7.00583 80.6668 7.50528 81.6657 8.50417C82.6646 9.48583 83.164 10.8033 83.164 12.4567C83.164 12.9044 83.1124 13.3867 83.009 13.9033H74.174C74.3463 15.3328 74.8199 16.3661 75.5949 17.0033C76.3871 17.6406 77.386 17.9592 78.5915 17.9592C79.9521 17.9592 81.2007 17.6664 82.3374 17.0808L82.5957 19.2767C81.2179 19.9311 79.7885 20.2583 78.3074 20.2583ZM80.3999 12.0692C80.3999 11.2597 80.1674 10.5967 79.7024 10.08C79.2374 9.56333 78.5399 9.305 77.6099 9.305C75.8704 9.305 74.7768 10.2264 74.329 12.0692H80.3999Z" fill="#161616"/>
</svg>
